<svg width="75" height="64" viewBox="0 0 75 64" fill="none" xmlns="http://www.w3.org/2000/svg">
<path d="M74.6191 7.10839C74.2174 5.76879 73.5059 4.54206 72.542 3.52701C71.578 2.51196 70.3885 1.73698 69.0693 1.26452C67.7501 0.792053 66.3381 0.635309 64.947 0.806917C63.556 0.978525 62.2248 1.47369 61.0607 2.2525C59.8966 3.03132 58.9322 4.07202 58.2451 5.29075C57.558 6.50949 57.1675 7.87217 57.1051 9.26903C57.0426 10.6659 57.3099 12.0578 57.8855 13.3328C58.461 14.6077 59.3287 15.7299 60.4187 16.6091L55.2491 29.1418L42.7879 14.4404C43.7932 12.9085 44.302 11.1053 44.2454 9.2752C44.1888 7.44511 43.5694 5.67665 42.4714 4.20952C41.3733 2.74239 39.8495 1.64756 38.1067 1.07342C36.3639 0.499275 34.4862 0.473597 32.7283 0.999862C30.9703 1.52613 29.4171 2.57888 28.2791 4.01543C27.1411 5.45198 26.4734 7.20284 26.3665 9.03069C26.2596 10.8585 26.7187 12.675 27.6815 14.2338C28.6443 15.7926 30.0643 17.0184 31.749 17.745L29.4766 36.8471L18.2439 29.2246C18.8342 27.3693 18.8004 25.3724 18.1478 23.538C17.4952 21.7036 16.2595 20.1322 14.6289 19.0632C12.9982 17.9942 11.0621 17.4861 9.1152 17.6164C7.16835 17.7467 5.31751 18.5081 3.84458 19.7847C2.37164 21.0614 1.35732 22.7833 0.956101 24.6882C0.554879 26.593 0.788742 28.5766 1.62207 30.3366C2.4554 32.0967 3.84253 33.5368 5.5722 34.4377C7.30187 35.3385 9.2793 35.6508 11.2033 35.3269L23.6182 60.5347C24.1519 61.6185 25.0537 62.4782 26.1631 62.9611C27.2726 63.4439 28.5177 63.5185 29.6771 63.1716L69.6083 51.2178C70.7676 50.8705 71.7658 50.1243 72.4254 49.1119C73.0851 48.0995 73.3633 46.8865 73.2107 45.6887L69.6619 17.84C71.6572 16.9611 73.2621 15.3855 74.1749 13.4094C75.0878 11.4332 75.2458 9.19254 74.6191 7.10839ZM34.2093 5.8901C34.9359 5.6726 35.7108 5.67491 36.436 5.89674C37.1613 6.11856 37.8043 6.54995 38.2837 7.13633C38.7632 7.72272 39.0576 8.43777 39.1297 9.19107C39.2018 9.94436 39.0484 10.7021 38.6888 11.3684C38.3292 12.0347 37.7796 12.5796 37.1096 12.9344C36.4395 13.2891 35.6791 13.4376 34.9244 13.3612C34.1697 13.2848 33.4547 12.9868 32.8697 12.505C32.2848 12.0232 31.8562 11.3792 31.6382 10.6544C31.3458 9.68251 31.4525 8.63454 31.9346 7.74105C32.4168 6.84757 33.2351 6.18176 34.2093 5.8901ZM6.04677 27.6363C5.82874 26.9115 5.83106 26.1385 6.05342 25.415C6.27579 24.6915 6.70822 24.0501 7.29603 23.5718C7.88384 23.0934 8.60063 22.7998 9.35576 22.7278C10.1109 22.6559 10.8704 22.809 11.5384 23.1677C12.2063 23.5264 12.7526 24.0746 13.1082 24.7431C13.4637 25.4115 13.6127 26.1701 13.536 26.923C13.4594 27.6758 13.1608 28.3891 12.6778 28.9726C12.1948 29.5561 11.5492 29.9837 10.8227 30.2012C9.8484 30.4929 8.79788 30.3865 7.90222 29.9055C7.00657 29.4245 6.33914 28.6082 6.04677 27.6363ZM67.15 13.339C66.4234 13.5565 65.6485 13.5542 64.9233 13.3324C64.1981 13.1105 63.555 12.6791 63.0756 12.0928C62.5961 11.5064 62.3017 10.7913 62.2296 10.038C62.1575 9.28472 62.311 8.52702 62.6705 7.86071C63.0301 7.19441 63.5797 6.64944 64.2497 6.29472C64.9198 5.94 65.6802 5.79145 66.4349 5.86787C67.1896 5.94429 67.9046 6.24225 68.4896 6.72405C69.0745 7.20586 69.5031 7.84987 69.7211 8.57467C70.0135 9.54658 69.9069 10.5946 69.4247 11.488C68.9425 12.3815 68.1243 13.0473 67.15 13.339Z" fill="url(#paint0_linear_57_13)"/>
<defs>
<linearGradient id="paint0_linear_57_13" x1="41.5893" y1="-1.65279" x2="49.6954" y2="58.6479" gradientUnits="userSpaceOnUse">
<stop stop-color="#9351FB"/>
<stop offset="1" stop-color="#6402FF"/>
</linearGradient>
</defs>
</svg>
